<svg width="40" height="40" viewBox="0 0 40 40" fill="none" xmlns="http://www.w3.org/2000/svg">
<path d="M20 23.297C24.1362 23.297 27.4999 19.9781 27.4999 15.8969C27.4999 11.8158 24.1362 8.49686 20 8.49686C15.8637 8.49686 12.5 11.8158 12.5 15.8969C12.5 19.9781 15.8637 23.297 20 23.297ZM20 12.1969C22.0681 12.1969 23.7499 13.8564 23.7499 15.8969C23.7499 17.9375 22.0681 19.597 20 19.597C17.9318 19.597 16.25 17.9375 16.25 15.8969C16.25 13.8564 17.9318 12.1969 20 12.1969Z" fill="#00A8FC"/>
<path d="M18.9125 37.753C19.2298 37.9766 19.6101 38.0968 20 38.0968C20.3899 38.0968 20.7702 37.9766 21.0875 37.753C21.6575 37.3552 35.0542 27.811 34.9998 15.8969C34.9998 7.73651 28.2705 1.0968 20 1.0968C11.7295 1.0968 5.00017 7.7365 5.00017 15.8877C4.94579 27.811 18.3425 37.3552 18.9125 37.753ZM20 4.79683C26.2043 4.79683 31.2499 9.77522 31.2499 15.9062C31.2893 24.1165 23.0225 31.4888 20 33.9068C16.9794 31.487 8.71075 24.1128 8.75012 15.8969C8.75012 9.77522 13.7957 4.79683 20 4.79683Z" fill="#00A8FC"/>
<path d="M20 23.297C24.1362 23.297 27.4999 19.9781 27.4999 15.8969C27.4999 11.8158 24.1362 8.49686 20 8.49686C15.8637 8.49686 12.5 11.8158 12.5 15.8969C12.5 19.9781 15.8637 23.297 20 23.297ZM20 12.1969C22.0681 12.1969 23.7499 13.8564 23.7499 15.8969C23.7499 17.9375 22.0681 19.597 20 19.597C17.9318 19.597 16.25 17.9375 16.25 15.8969C16.25 13.8564 17.9318 12.1969 20 12.1969Z" stroke="white" stroke-width="2"/>
<path d="M18.9125 37.753C19.2298 37.9766 19.6101 38.0968 20 38.0968C20.3899 38.0968 20.7702 37.9766 21.0875 37.753C21.6575 37.3552 35.0542 27.811 34.9998 15.8969C34.9998 7.73651 28.2705 1.0968 20 1.0968C11.7295 1.0968 5.00017 7.7365 5.00017 15.8877C4.94579 27.811 18.3425 37.3552 18.9125 37.753ZM20 4.79683C26.2043 4.79683 31.2499 9.77522 31.2499 15.9062C31.2893 24.1165 23.0225 31.4888 20 33.9068C16.9794 31.487 8.71075 24.1128 8.75012 15.8969C8.75012 9.77522 13.7957 4.79683 20 4.79683Z" stroke="white" stroke-width="2"/>
</svg>
